<svg id="login-logo" width="100" height="100" viewBox="0 0 100 100" fill="none" xmlns="http://www.w3.org/2000/svg">
  <path fill-rule="evenodd" clip-rule="evenodd" d="M45.2 65.8L61.4 56.5L77.7 65.8H96.8V76.9L61.4 97.3L26.1 76.9V65.8H45.2Z" fill="#E8B768" />
  <path fill-rule="evenodd" clip-rule="evenodd" d="M26.1 65.8L61.4 45.5L96.8 65.8L61.4 86.2L26.1 65.8Z" fill="#FFE4BC" />
  <path fill-rule="evenodd" clip-rule="evenodd" d="M29.5 65.8L31 66.7L61.4 49.2V47.4L29.5 65.8Z" fill="#A86619" />
  <path fill-rule="evenodd" clip-rule="evenodd" d="M61.4 97.3V86.2L96.8 65.8V76.9L61.4 97.3Z" fill="#A86619" />
  <path fill-rule="evenodd" clip-rule="evenodd" d="M31 66.7L61.4 84.3L91.9 66.7L61.4 49.2L31 66.7Z" fill="#E8B768" />
  <path fill-rule="evenodd" clip-rule="evenodd" d="M72.6 57.4C74 58.2 72.2 59.5 70.8 58.8L60.7 53C59.3 52.2 61.1 50.9 62.5 51.6L72.6 57.4Z" fill="#3D2916" />
  <path fill-rule="evenodd" clip-rule="evenodd" d="M61.4 49.2V47.4L93.6 65.8L91.9 66.7L61.4 49.2Z" fill="#C17B15" />
  <path fill-rule="evenodd" clip-rule="evenodd" d="M63.1 94.3V86.8C68 84 72.9 81.1 77.8 78.3V85.9C72.9 88.7 68 91.6 63.1 94.4V94.3V94.3ZM63.3 86.9V94.2L77.7 85.9V78.6L63.3 86.9ZM80.6 84.2V76.7C85.5 73.9 90.4 71 95.3 68.2V75.8C90.4 78.6 85.5 81.5 80.6 84.3V84.2ZM80.8 76.8V84L95.2 75.7V68.4L80.8 76.8Z" fill="#CF9B1E" />
  <path fill-rule="evenodd" clip-rule="evenodd" d="M63.2 86.8C65.6 85.4 68.1 84 70.5 82.6C72.9 81.2 75.4 79.8 77.8 78.4C77.8 79.6 77.8 80.9 77.8 82.1C77.8 83.3 77.8 84.6 77.8 85.8C75.4 87.2 72.9 88.6 70.5 90C68.1 91.4 65.6 92.8 63.2 94.2C63.2 93 63.2 91.7 63.2 90.5C63.2 89.3 63.2 88.1 63.2 86.8Z" fill="#804C17" />
  <path fill-rule="evenodd" clip-rule="evenodd" d="M65.1 86.5C65.3 86.4 65.5 86.3 65.7 86.2C65.7 87.2 65.7 88.2 65.7 89.2C65.7 90.2 65.7 91.2 65.7 92.2C65.5 92.3 65.3 92.4 65.1 92.5C65.1 91.5 65.1 90.5 65.1 89.5C65.1 88.5 65.1 87.5 65.1 86.5ZM63.9 87.1C64.1 87 64.3 86.9 64.5 86.8C64.5 87.8 64.5 88.8 64.5 89.8C64.5 90.8 64.5 91.8 64.5 92.8C64.3 92.9 64.1 93 63.9 93.1C63.9 92.1 63.9 91.1 63.9 90.1C63.9 89.1 63.9 88.1 63.9 87.1ZM66.2 85.8C66.4 85.7 66.6 85.6 66.8 85.5C66.8 86.5 66.8 87.5 66.8 88.5C66.8 89.5 66.8 90.5 66.8 91.5C66.6 91.6 66.4 91.7 66.2 91.8C66.2 90.8 66.2 89.8 66.2 88.8C66.2 87.8 66.2 86.8 66.2 85.8ZM67.4 85.2C67.6 85.1 67.8 85 68 84.9C68 85.9 68 86.9 68 87.9C68 88.9 68 89.9 68 90.9C67.8 91 67.6 91.1 67.4 91.2C67.4 90.2 67.4 89.2 67.4 88.2C67.4 87.2 67.4 86.2 67.4 85.2ZM68.5 84.5C68.7 84.4 68.9 84.3 69.1 84.2C69.1 85.2 69.1 86.2 69.1 87.2C69.1 88.2 69.1 89.2 69.1 90.2C68.9 90.3 68.7 90.4 68.5 90.5C68.5 89.5 68.5 88.5 68.5 87.5C68.5 86.5 68.5 85.5 68.5 84.5ZM69.6 83.8C69.8 83.7 70 83.6 70.2 83.5C70.2 84.5 70.2 85.5 70.2 86.5C70.2 87.5 70.2 88.5 70.2 89.5C70 89.6 69.8 89.7 69.6 89.8C69.6 88.8 69.6 87.8 69.6 86.8C69.6 85.8 69.6 84.8 69.6 83.8ZM70.8 83.2C71 83.1 71.2 83 71.4 82.9C71.4 83.9 71.4 84.9 71.4 85.9C71.4 86.9 71.4 87.9 71.4 88.9C71.2 89 71 89.1 70.8 89.2C70.8 88.2 70.8 87.2 70.8 86.2C70.8 85.2 70.8 84.2 70.8 83.2ZM71.9 82.5C72.1 82.4 72.3 82.3 72.5 82.2C72.5 83.2 72.5 84.2 72.5 85.2C72.5 86.2 72.5 87.2 72.5 88.2C72.3 88.3 72.1 88.4 71.9 88.5C71.9 87.5 71.9 86.5 71.9 85.5C71.9 84.5 71.9 83.5 71.9 82.5ZM73.1 81.9C73.3 81.8 73.5 81.7 73.7 81.6C73.7 82.6 73.7 83.6 73.7 84.6C73.7 85.6 73.7 86.6 73.7 87.6C73.5 87.7 73.3 87.8 73.1 87.9C73.1 86.9 73.1 85.9 73.1 84.9C73.1 83.9 73.1 82.9 73.1 81.9ZM74.2 81.2C74.4 81.1 74.6 81 74.8 80.9C74.8 81.9 74.8 82.9 74.8 83.9C74.8 84.9 74.8 85.9 74.8 86.9C74.6 87 74.4 87.1 74.2 87.2C74.2 86.2 74.2 85.2 74.2 84.2C74.2 83.2 74.2 82.2 74.2 81.2ZM75.3 80.6C75.5 80.5 75.7 80.4 75.9 80.3C75.9 81.3 75.9 82.3 75.9 83.3C75.9 84.3 75.9 85.3 75.9 86.3C75.7 86.4 75.5 86.5 75.3 86.6C75.3 85.6 75.3 84.6 75.3 83.6C75.3 82.6 75.3 81.6 75.3 80.6ZM76.5 79.9C76.7 79.8 76.9 79.7 77.1 79.6C77.1 80.6 77.1 81.6 77.1 82.6C77.1 83.6 77.1 84.6 77.1 85.6C76.9 85.7 76.7 85.8 76.5 85.9C76.5 84.9 76.5 83.9 76.5 82.9C76.5 81.9 76.5 80.9 76.5 79.9Z" fill="#3D2916" />
  <path fill-rule="evenodd" clip-rule="evenodd" d="M80.7 76.7C83.1 75.3 85.6 73.9 88 72.5C90.4 71.1 92.9 69.7 95.3 68.3C95.3 69.5 95.3 70.8 95.3 72C95.3 73.2 95.3 74.5 95.3 75.7C92.9 77.1 90.4 78.5 88 79.9C85.6 81.3 83.1 82.7 80.7 84.1C80.7 82.9 80.7 81.6 80.7 80.4C80.7 79.2 80.7 78 80.7 76.7Z" fill="#804C17" />
  <path fill-rule="evenodd" clip-rule="evenodd" d="M82.6 76.4C82.8 76.3 83 76.2 83.2 76.1C83.2 77.1 83.2 78.1 83.2 79.1C83.2 80.1 83.2 81.1 83.2 82.1C83 82.2 82.8 82.3 82.6 82.4C82.6 81.4 82.6 80.4 82.6 79.4C82.6 78.4 82.6 77.4 82.6 76.4ZM81.4 77C81.6 76.9 81.8 76.8 82 76.7C82 77.7 82 78.7 82 79.7C82 80.7 82 81.7 82 82.7C81.8 82.8 81.6 82.9 81.4 83C81.4 82 81.4 81 81.4 80C81.4 79 81.4 78 81.4 77ZM83.7 75.7C83.9 75.6 84.1 75.5 84.3 75.4C84.3 76.4 84.3 77.4 84.3 78.4C84.3 79.4 84.3 80.4 84.3 81.4C84.1 81.5 83.9 81.6 83.7 81.7C83.7 80.7 83.7 79.7 83.7 78.7C83.7 77.7 83.7 76.7 83.7 75.7ZM84.9 75.1C85.1 75 85.3 74.9 85.5 74.8C85.5 75.8 85.5 76.8 85.5 77.8C85.5 78.8 85.5 79.8 85.5 80.8C85.3 80.9 85.1 81 84.9 81.1C84.9 80.1 84.9 79.1 84.9 78.1C84.9 77.1 84.9 76.1 84.9 75.1ZM86 74.4C86.2 74.3 86.4 74.2 86.6 74.1C86.6 75.1 86.6 76.1 86.6 77.1C86.6 78.1 86.6 79.1 86.6 80.1C86.4 80.2 86.2 80.3 86 80.4C86 79.4 86 78.4 86 77.4C86 76.4 86 75.4 86 74.4ZM87.1 73.7C87.3 73.6 87.5 73.5 87.7 73.4C87.7 74.4 87.7 75.4 87.7 76.4C87.7 77.4 87.7 78.4 87.7 79.4C87.5 79.5 87.3 79.6 87.1 79.7C87.1 78.7 87.1 77.7 87.1 76.7C87.1 75.7 87.1 74.7 87.1 73.7ZM88.3 73.1C88.5 73 88.7 72.9 88.9 72.8C88.9 73.8 88.9 74.8 88.9 75.8C88.9 76.8 88.9 77.8 88.9 78.8C88.7 78.9 88.5 79 88.3 79.1C88.3 78.1 88.3 77.1 88.3 76.1C88.3 75.1 88.3 74.1 88.3 73.1ZM89.4 72.4C89.6 72.3 89.8 72.2 90 72.1C90 73.1 90 74.1 90 75.1C90 76.1 90 77.1 90 78.1C89.8 78.2 89.6 78.3 89.4 78.4C89.4 77.4 89.4 76.4 89.4 75.4C89.4 74.4 89.4 73.4 89.4 72.4ZM90.5 71.8C90.7 71.7 90.9 71.6 91.1 71.5C91.1 72.5 91.1 73.5 91.1 74.5C91.1 75.5 91.1 76.5 91.1 77.5C90.9 77.6 90.7 77.7 90.5 77.8C90.5 76.8 90.5 75.8 90.5 74.8C90.5 73.8 90.5 72.8 90.5 71.8ZM91.7 71.1C91.9 71 92.1 70.9 92.3 70.8C92.3 71.8 92.3 72.8 92.3 73.8C92.3 74.8 92.3 75.8 92.3 76.8C92.1 76.9 91.9 77 91.7 77.1C91.7 76.1 91.7 75.1 91.7 74.1C91.7 73.1 91.7 72.1 91.7 71.1ZM92.8 70.5C93 70.4 93.2 70.3 93.4 70.2C93.4 71.2 93.4 72.2 93.4 73.2C93.4 74.2 93.4 75.2 93.4 76.2C93.2 76.3 93 76.4 92.8 76.5C92.8 75.5 92.8 74.5 92.8 73.5C92.8 72.5 92.8 71.5 92.8 70.5ZM94 69.8C94.2 69.7 94.4 69.6 94.6 69.5C94.6 70.5 94.6 71.5 94.6 72.5C94.6 73.5 94.6 74.5 94.6 75.5C94.4 75.6 94.2 75.7 94 75.8C94 74.8 94 73.8 94 72.8C94 71.8 94 70.8 94 69.8Z" fill="#3D2916" />
  <path fill-rule="evenodd" clip-rule="evenodd" d="M35.1 67.2L39.4 64.7L43.7 67.2L39.4 69.7L38 69.4L35.1 67.2Z" fill="#D79B3A" />
  <path fill-rule="evenodd" clip-rule="evenodd" d="M60.7 78.7C69.9 78.7 77.3 74.1 77.3 68.5C77.3 62.9 69.8 58.3 60.7 58.3C51.5 58.3 44.1 62.9 44.1 68.5C44.1 74.1 51.5 78.7 60.7 78.7Z" fill="#D79B3A" />
  <path fill-rule="evenodd" clip-rule="evenodd" d="M59.8 77.9C69 77.9 76.4 73.3 76.4 67.7C76.4 62.1 68.9 57.5 59.8 57.5C50.6 57.5 43.2 62.1 43.2 67.7C43.2 73.3 50.6 77.9 59.8 77.9Z" fill="#554843" />
  <path fill-rule="evenodd" clip-rule="evenodd" d="M76.7 66.9C77.8 72.9 71.2 78.1 61.9 78.4C52.6 78.8 44.1 74.3 43 68.3C41.9 62.3 48.5 57.1 57.8 56.8C67.1 56.4 75.5 60.9 76.7 66.9Z" fill="#33CC66" />
  <path fill-rule="evenodd" clip-rule="evenodd" d="M71.7 65C71.8 65.8 70.7 66.3 69.5 66C68.7 65.8 67.9 65.6 67.1 65.4C65.5 65.1 63.8 64.9 62.2 64.8C61 64.7 59.9 64.7 58.7 64.7C57.5 64.7 56.3 64.7 55.1 64.8C53.7 64.9 52.4 65.1 51.1 65.3C50.6 65.4 50.1 65.5 49.7 65.6C49.4 65.7 49.1 65.7 48.8 65.6C48.1 65.5 47.6 65.1 47.5 64.7C47.4 64.3 47.7 63.9 48.4 63.7C48.9 63.6 49.3 63.5 49.8 63.4C51 63.2 52.2 63 53.4 62.9C54.7 62.8 56 62.7 57.3 62.7C60.5 62.6 63.8 62.8 66.9 63.3C68.2 63.5 69.5 63.8 70.7 64.2C71.1 64.3 71.5 64.5 71.6 64.8C71.7 64.8 71.7 64.9 71.7 65Z" fill="black" />
  <path fill-rule="evenodd" clip-rule="evenodd" d="M57 68C55.1 68.1 53.1 68.3 51.3 68.8C51 68.9 50.7 68.9 50.4 68.8C49.9 68.7 49.5 68.4 49.4 68C49.4 67.6 49.6 67.3 50.1 67.2C50.6 67.1 51.2 67 51.7 66.9C53 66.6 54.4 66.5 55.8 66.4C58.8 66.2 61.8 66.3 64.7 66.8C66.2 67 67.7 67.4 69.1 67.8C69.2 67.8 69.2 67.8 69.3 67.9C70 68.1 70.2 68.7 70 69C69.7 69.4 69 69.6 68.3 69.4C67.9 69.3 67.5 69.2 67.1 69.1C65.3 68.6 63.4 68.3 61.5 68.2C60 68 58.5 68 57 68Z" fill="black" />
  <path fill-rule="evenodd" clip-rule="evenodd" d="M57.6 69.8C59.8 69.7 62 69.8 64.2 70.2C65.4 70.4 66.6 70.7 67.7 71C67.8 71 67.9 71.1 68 71.1C68.5 71.3 68.6 71.7 68.4 72C68.2 72.3 67.7 72.4 67.1 72.3C67 72.3 66.9 72.2 66.8 72.2C64.9 71.6 62.9 71.3 60.8 71.1C59.5 71 58.3 71 57 71.1C55.4 71.2 53.8 71.4 52.2 71.7C52 71.7 51.9 71.8 51.7 71.8C51.2 71.8 50.7 71.6 50.6 71.3C50.4 71 50.6 70.7 51.1 70.5C51.2 70.5 51.3 70.5 51.4 70.4C52.7 70.2 54 70 55.3 69.8C56.1 69.9 56.9 69.9 57.6 69.8Z" fill="black" />
  <path fill-rule="evenodd" clip-rule="evenodd" d="M43.2 67.4C43.2 67 43.3 66.7 43.3 66.4L48.2 67.2C48.3 67.2 48.3 67.2 48.4 67.3L48.9 67.6L49.4 67.3L53.2 69.5V70.5L52 71.2L48.2 69V68.4L47.9 68.2L43.2 67.4Z" fill="#463A34" />
  <path fill-rule="evenodd" clip-rule="evenodd" d="M59.8 69.7C61.8 69.7 63.5 68.7 63.5 67.4C63.5 66.2 61.8 65.1 59.8 65.1C57.8 65.1 56.1 66.1 56.1 67.4C56.1 68.6 57.8 69.7 59.8 69.7Z" fill="#DDD2CE" />
  <path fill-rule="evenodd" clip-rule="evenodd" d="M60 67L61.1 67.4C61.3 67.5 60.9 67.9 60.7 67.8L59.6 67.4C59.3 67.3 59.7 66.9 60 67Z" fill="#CCBCB6" />
  <path fill-rule="evenodd" clip-rule="evenodd" d="M59.4 67.2V65.9C59.4 65.6 60.2 65.6 60.2 65.9V67.2C60.2 67.5 59.4 67.5 59.4 67.2Z" fill="white" />
  <path fill-rule="evenodd" clip-rule="evenodd" d="M33.7 66.9V65.8H42.3V66.9L38 69.4L33.7 66.9Z" fill="#3C322C" />
  <path fill-rule="evenodd" clip-rule="evenodd" d="M33.7 65.8L38 63.3L42.3 65.8L38 68.2L33.7 65.8Z" fill="#554843" />
  <path fill-rule="evenodd" clip-rule="evenodd" d="M36.7 65.6C36.4 65.5 36.2 65.3 36.3 65C36.4 64.7 36.6 64.5 36.9 64.6L48.2 66.5C48.3 66.5 48.3 66.5 48.4 66.6L52.1 68.8C52.3 68.9 52.4 69.3 52.3 69.5C52.2 69.7 51.8 69.8 51.6 69.7L48 67.5L36.7 65.6Z" fill="#A19089" />
  <path fill-rule="evenodd" clip-rule="evenodd" d="M48.2 68.2V67.2L53.1 68.6V69.7L51.9 70.3L48.2 68.2Z" fill="#DDD2CE" />
  <path fill-rule="evenodd" clip-rule="evenodd" d="M48.2 67.2L49.4 66.5L53.1 68.6L51.9 69.3L48.2 67.2Z" fill="white" />
  <path fill-rule="evenodd" clip-rule="evenodd" d="M36.6 65.6V64.7C36.6 63.6 39.5 63.6 39.5 64.7V65.6C39.4 66.7 36.6 66.7 36.6 65.6Z" fill="white" />
  <path fill-rule="evenodd" clip-rule="evenodd" d="M78.3 62.9C79.3 62.9 80.1 62.5 80.1 62C80.1 61.5 79.3 61.1 78.3 61.1C77.3 61.1 76.5 61.5 76.5 62C76.6 62.5 77.4 62.9 78.3 62.9Z" fill="#D79B3A" />
  <path fill-rule="evenodd" clip-rule="evenodd" d="M76.4 61.9V61C76.4 59.9 79.3 59.9 79.3 61V61.9C79.3 63 76.4 63 76.4 61.9Z" fill="#3C322C" />
  <path d="M81.2 64.7C82.1941 64.7 83 64.2971 83 63.8C83 63.3029 82.1941 62.9 81.2 62.9C80.2059 62.9 79.4 63.3029 79.4 63.8C79.4 64.2971 80.2059 64.7 81.2 64.7Z" fill="#D79B3A" />
  <path fill-rule="evenodd" clip-rule="evenodd" d="M79.3 63.6C79.3 63.3 79.3 63 79.3 62.7C79.3 61.6 82.2 61.6 82.2 62.7C82.2 63 82.2 63.3 82.2 63.6C82.2 64.7 79.3 64.7 79.3 63.6Z" fill="#3C322C" />
  <path d="M84.1 66.4C85.0941 66.4 85.9 65.9971 85.9 65.5C85.9 65.0029 85.0941 64.6 84.1 64.6C83.1059 64.6 82.3 65.0029 82.3 65.5C82.3 65.9971 83.1059 66.4 84.1 66.4Z" fill="#D79B3A" />
  <path fill-rule="evenodd" clip-rule="evenodd" d="M82.2 65.4C82.2 65.1 82.2 64.8 82.2 64.5C82.2 63.4 85.1 63.4 85.1 64.5C85.1 64.8 85.1 65.1 85.1 65.4C85.1 66.5 82.2 66.5 82.2 65.4Z" fill="#3C322C" />
  <path fill-rule="evenodd" clip-rule="evenodd" d="M87 68.2C88 68.2 88.8 67.8 88.8 67.3C88.8 66.8 88 66.4 87 66.4C86 66.4 85.2 66.8 85.2 67.3C85.3 67.8 86.1 68.2 87 68.2Z" fill="#D79B3A" />
  <path fill-rule="evenodd" clip-rule="evenodd" d="M85.1 67.2V66.3C85.1 65.2 88 65.2 88 66.3V67.2C88 68.3 85.1 68.3 85.1 67.2Z" fill="#3C322C" />
  <path fill-rule="evenodd" clip-rule="evenodd" d="M35.7 49.3L51.9 40V21.2L61.4 4.7L58.8 3.2L23.5 23.6V64.3L26.1 65.8L35.7 49.3Z" fill="#E8B768" />
  <path fill-rule="evenodd" clip-rule="evenodd" d="M26.1 65.8L61.4 45.5V4.7L26.1 25.1V65.8Z" fill="#DFA751" />
  <path fill-rule="evenodd" clip-rule="evenodd" d="M27.8 62.9V61.2L58.2 43.6L59.7 44.5L27.8 62.9Z" fill="#844D17" />
  <path fill-rule="evenodd" clip-rule="evenodd" d="M23.5 23.6L26.1 25.1L61.4 4.7L58.8 3.2L23.5 23.6Z" fill="#C17B15" />
  <path fill-rule="evenodd" clip-rule="evenodd" d="M27.8 61.2V26L58.2 8.5V43.6L27.8 61.2Z" fill="#C17B15" />
  <path fill-rule="evenodd" clip-rule="evenodd" d="M58.2 43.6L59.7 44.5L59.9 7.39999L58.2 8.49999V43.6Z" fill="#A86619" />
  <path fill-rule="evenodd" clip-rule="evenodd" d="M51.9 49.9L56.5 47.3L57.4 48.9L52.8 51.5L51.9 49.9Z" fill="#3C322C" />
  <path fill-rule="evenodd" clip-rule="evenodd" d="M33.5 60.5L38.1 57.9L39 59.5L34.4 62.1L33.5 60.5Z" fill="#3C322C" />
  <path fill-rule="evenodd" clip-rule="evenodd" d="M55.3 38C55.1 37.6 55.3 37.1 55.6 36.9C56 36.7 56.5 36.9 56.7 37.2L65.2 53.7C65.4 54.1 65.2 54.6 64.9 54.8C64.5 55 64 54.8 63.8 54.5L55.3 38Z" fill="white" />
  <path d="M25.8 88.4C25.7 88.4 25.7 88.4 25.6 88.4C21.2 87.4 13.7 84.7 11.9 81.5C11.4 80.5 11.5 79.7 11.7 79.2C12.9 76 17.2 76.5 21.8 77.1C25.9 77.6 30.6 78.1 32.1 75.7C32.4 75.2 33 75.1 33.5 75.4C34 75.7 34.1 76.3 33.8 76.8C31.6 80.3 26.3 79.7 21.5 79.1C17.9 78.7 14.2 78.2 13.5 79.9C13.5 80 13.4 80.2 13.6 80.5C14.8 82.6 21 85.3 26 86.4C26.5 86.5 26.9 87.1 26.8 87.6C26.7 88.1 26.3 88.4 25.8 88.4Z" fill="#33CC66" />
  <path d="M29 92.7C26.5 92 24.9 89.6 25.5 87.4C26.1 85.1 28.7 83.9 31.2 84.6" fill="#339966" />
  <path d="M29.0026 92.6679C29.7494 92.8683 30.8421 91.2144 31.4431 88.9739C32.0441 86.7334 31.9259 84.7547 31.179 84.5544C30.4322 84.354 29.3396 86.0079 28.7386 88.2484C28.1376 90.4889 28.2558 92.4676 29.0026 92.6679Z" fill="#99FFCC" />
  <path d="M34.7 89.3L29.7 88L30.5 86.6L35.5 87.9C35.8 88 35.9 88.2 35.7 88.5L35.4 89C35.3 89.3 35 89.4 34.7 89.3Z" fill="#CCCC33" />
  <path d="M34 91.7L29 90.4L29.8 89L34.8 90.3C35.1 90.4 35.2 90.6 35 90.9L34.7 91.4C34.6 91.7 34.3 91.8 34 91.7Z" fill="#CCCC33" />
</svg>